<svg width="18" height="13" viewBox="0 0 18 13" fill="none" xmlns="http://www.w3.org/2000/svg">
<path d="M16.8863 0.19316C16.7045 0.198579 16.5318 0.274584 16.4051 0.405074L5.69999 11.1102L1.29491 6.70507C1.23041 6.63789 1.15315 6.58426 1.06766 6.54731C0.982168 6.51036 0.890165 6.49084 0.797036 6.48989C0.703908 6.48894 0.611526 6.50659 0.525302 6.54179C0.439078 6.57699 0.360745 6.62904 0.29489 6.6949C0.229034 6.76075 0.176981 6.83909 0.141779 6.92531C0.106577 7.01154 0.0889325 7.10392 0.08988 7.19705C0.0908275 7.29017 0.110348 7.38218 0.147297 7.46767C0.184246 7.55316 0.237882 7.63042 0.305064 7.69492L5.20506 12.5949C5.33634 12.7261 5.51437 12.7999 5.69999 12.7999C5.88561 12.7999 6.06363 12.7261 6.19491 12.5949L17.3949 1.39492C17.4961 1.29659 17.5651 1.17001 17.5931 1.03174C17.6211 0.893478 17.6066 0.749989 17.5517 0.620079C17.4967 0.490169 17.4037 0.379898 17.285 0.303718C17.1663 0.227538 17.0273 0.189002 16.8863 0.19316Z" fill="#F25F4C"/>
</svg>
