<svg width="21" height="21" viewBox="0 0 21 21" fill="none" xmlns="http://www.w3.org/2000/svg">
<g clip-path="url(#clip0_2123_4)">
<path d="M18.3576 1.76894C18.4149 1.71096 18.483 1.66485 18.5582 1.63327C18.6333 1.60168 18.7139 1.58525 18.7954 1.58491C18.8769 1.58456 18.9576 1.60031 19.033 1.63126C19.1084 1.66221 19.1769 1.70774 19.2347 1.76524C19.4756 2.00612 19.4756 2.39832 19.231 2.6423L2.64222 19.2311C2.39887 19.4744 2.0079 19.4781 1.76516 19.2348C1.52428 18.9939 1.52428 18.6017 1.76887 18.3577L18.3576 1.76894Z" fill="#F25F4C"/>
<path d="M1.7653 1.76522C2.00618 1.52434 2.39839 1.52434 2.64236 1.76893L19.2311 18.3577C19.4745 18.601 19.4782 18.992 19.2348 19.2348C18.9939 19.4756 18.6017 19.4756 18.3578 19.231L1.769 2.64228C1.71102 2.58502 1.66491 2.51688 1.63333 2.44176C1.60175 2.36663 1.58531 2.28601 1.58497 2.20452C1.58462 2.12303 1.60038 2.04228 1.63132 1.96689C1.66227 1.8915 1.7078 1.82297 1.7653 1.76522Z" fill="#F25F4C"/>
</g>
<defs>
<clipPath id="clip0_2123_4">
<rect width="21" height="21" fill="white"/>
</clipPath>
</defs>
</svg>
