<svg width="29" height="28" viewBox="0 0 29 28" fill="none" xmlns="http://www.w3.org/2000/svg">
<path d="M16.6341 2.20244C16.6341 1.6209 16.403 1.06318 15.9918 0.651965C15.5806 0.240752 15.0229 0.00973511 14.4414 0.00973511C13.8598 0.00973511 13.3021 0.240752 12.8909 0.651965C12.4797 1.06318 12.2486 1.6209 12.2486 2.20244V11.7042H2.74691C2.16537 11.7042 1.60764 11.9352 1.19643 12.3464C0.785216 12.7576 0.554199 13.3153 0.554199 13.8969C0.554199 14.4784 0.785216 15.0362 1.19643 15.4474C1.60764 15.8586 2.16537 16.0896 2.74691 16.0896H12.2486V25.5913C12.2486 26.1729 12.4797 26.7306 12.8909 27.1418C13.3021 27.553 13.8598 27.784 14.4414 27.784C15.0229 27.784 15.5806 27.553 15.9918 27.1418C16.403 26.7306 16.6341 26.1729 16.6341 25.5913V16.0896H26.1358C26.7173 16.0896 27.2751 15.8586 27.6863 15.4474C28.0975 15.0362 28.3285 14.4784 28.3285 13.8969C28.3285 13.3153 28.0975 12.7576 27.6863 12.3464C27.2751 11.9352 26.7173 11.7042 26.1358 11.7042H16.6341V2.20244Z" fill="white"/>
</svg>
