<svg width="15" height="19" viewBox="0 0 15 19" fill="none" xmlns="http://www.w3.org/2000/svg">
<path d="M12.9706 2.92378C9.92672 -0.631762 4.70856 -0.9444 1.28236 1.98562C0.984667 2.24012 0.972537 2.70378 1.24766 2.98316C1.4961 3.23543 1.89011 3.2448 2.15941 3.01568C5.10984 0.505953 9.63194 0.850865 12.1503 4.05016C14.171 6.61729 14.171 10.3362 12.1503 12.9033C9.70812 16.006 5.38206 16.4239 2.43186 14.1578L4.84151 13.2369C5.18797 13.1043 5.36313 12.7119 5.23285 12.3601C5.10232 12.0083 4.71584 11.8304 4.36938 11.9627L0.434417 13.4667C0.0879637 13.5993 -0.0872042 13.9917 0.0430799 14.3436L1.60552 18.5589C1.73604 18.9107 2.12253 19.0886 2.46898 18.9563C2.81544 18.8237 2.99061 18.4312 2.86032 18.0794L1.87895 15.4318C5.29084 17.8516 10.0985 17.3854 12.9708 14.0307C15.6764 10.8701 15.6764 6.08416 12.9706 2.92378Z" fill="#F25F4C"/>
</svg>
