<svg width="22" height="22" viewBox="0 0 22 22" fill="none" xmlns="http://www.w3.org/2000/svg">
<path d="M13.2 4.72727C13.2 4.29328 13.0209 3.87707 12.7021 3.57019C12.3833 3.26331 11.9509 3.09091 11.5 3.09091C11.0491 3.09091 10.6167 3.26331 10.2979 3.57019C9.97911 3.87707 9.8 4.29328 9.8 4.72727H8.66667C8.66667 4.00396 8.96518 3.31026 9.49653 2.7988C10.0279 2.28734 10.7486 2 11.5 2C12.2514 2 12.9721 2.28734 13.5035 2.7988C14.0348 3.31026 14.3333 4.00396 14.3333 4.72727H19.4333C19.5836 4.72727 19.7278 4.78474 19.834 4.88703C19.9403 4.98933 20 5.12806 20 5.27273C20 5.41739 19.9403 5.55613 19.834 5.65842C19.7278 5.76071 19.5836 5.81818 19.4333 5.81818H18.8055L17.3367 18.0691C17.2727 18.6008 17.0079 19.0913 16.5927 19.4474C16.1775 19.8034 15.6408 20.0001 15.0847 20H7.91527C7.35919 20.0001 6.8225 19.8034 6.40727 19.4474C5.99205 19.0913 5.72728 18.6008 5.66333 18.0691L4.1934 5.81818H3.56667C3.43404 5.81822 3.30559 5.77349 3.20371 5.69176C3.10182 5.61003 3.03294 5.49649 3.00907 5.37091L3 5.27273C3 5.12806 3.0597 4.98933 3.16597 4.88703C3.27224 4.78474 3.41638 4.72727 3.56667 4.72727H13.2ZM17.6631 5.81818H5.3358L6.78873 17.9436C6.82072 18.2096 6.95319 18.4549 7.16092 18.6329C7.36865 18.811 7.63713 18.9093 7.91527 18.9091H15.0847C15.3627 18.909 15.6309 18.8106 15.8384 18.6326C16.0459 18.4546 16.1782 18.2094 16.2101 17.9436L17.6631 5.81818ZM9.8 8.54545C10.0777 8.54545 10.31 8.71455 10.3576 8.93709L10.3667 9.02327V15.7051C10.3667 15.968 10.1128 16.1818 9.8 16.1818C9.52233 16.1818 9.29 16.0127 9.2424 15.7902L9.23333 15.704V9.02436C9.23333 8.76036 9.4872 8.54655 9.8 8.54655V8.54545ZM13.2 8.54545C13.4777 8.54545 13.71 8.71455 13.7576 8.93709L13.7667 9.02327V15.7051C13.7667 15.968 13.5128 16.1818 13.2 16.1818C12.9223 16.1818 12.69 16.0127 12.6424 15.7902L12.6333 15.704V9.02436C12.6333 8.76036 12.8872 8.54655 13.2 8.54655V8.54545Z" fill="#F25F4C"/>
</svg>
